<?xml version="1.0" encoding="UTF-8" standalone="no"?>
<svg
   width="600"
   height="75"
   viewBox="0 0 600 75"
   version="1.1"
   style="stroke-linecap: round; stroke-linejoin: round; stroke-miterlimit: 1.5;"
   id="svg22"
   sodipodi:docname="footer_line.svg"
   xml:space="preserve"
   inkscape:version="1.2 (dc2aedaf03, 2022-05-15)"
   xmlns:inkscape="http://www.inkscape.org/namespaces/inkscape"
   xmlns:sodipodi="http://sodipodi.sourceforge.net/DTD/sodipodi-0.dtd"
   xmlns="http://www.w3.org/2000/svg"
   xmlns:svg="http://www.w3.org/2000/svg"><defs
     id="defs26" /><sodipodi:namedview
     id="namedview24"
     pagecolor="#ffffff"
     bordercolor="#666666"
     borderopacity="1.0"
     inkscape:showpageshadow="2"
     inkscape:pageopacity="0.0"
     inkscape:pagecheckerboard="0"
     inkscape:deskcolor="#d1d1d1"
     showgrid="false"
     inkscape:zoom="2"
     inkscape:cx="308.5"
     inkscape:cy="18.5"
     inkscape:window-width="1920"
     inkscape:window-height="1009"
     inkscape:window-x="-8"
     inkscape:window-y="-8"
     inkscape:window-maximized="1"
     inkscape:current-layer="svg22" /><path
     transform="matrix(3.96613,0,0,5.89452,-177.012,-336.835)"
     d="M93.717,66.428L195.647,66.428"
     style="fill: none; stroke: rgb(110, 108, 126); stroke-width: 0.3px;"
     id="path18" /><path
     transform="matrix(1.78906,0,0,2.78204,-166.7,-130.078)"
     d="M93.717,66.428L195.647,66.428"
     style="fill: none; stroke: rgb(110, 108, 126); stroke-width: 0.64px;"
     id="path20" /><path
     style="fill:#6e6c7e;fill-opacity:1;stroke:none;stroke-width:0.0384393;stroke-opacity:1"
     d="m 182.98215,55.611905 c -2.0118,0.0024 -0.58085,-1.361413 -0.60717,-1.544235 -0.0633,-0.439625 0.95483,-0.08184 3.44357,-0.278199 2.07469,-0.163687 3.71572,-1.218824 4.43532,-1.589703 l 0.19588,-0.100954 -0.36576,-0.317267 c -3.16176,-2.742575 -2.25988,-7.909226 1.80292,-10.328536 1.10596,-0.658584 1.38113,-0.592327 1.6058,0.386667 0.13619,0.593396 0.28966,1.041201 0.6462,1.885563 0.87325,2.068006 1.05548,3.1891 0.77936,4.794614 l -0.093,0.540754 0.42742,-0.403805 c 0.71701,-0.677406 0.92491,-0.898296 3.45955,-3.675728 0.68297,-0.748397 0.6619,-0.564927 0.16686,-1.45361 -1.71914,-3.086117 -2.02854,-4.515118 -1.49055,-6.884279 0.57805,-2.545452 2.07317,-4.570671 4.01957,-5.444632 0.78283,-0.351493 0.9222,-0.230203 1.2609,1.097314 0.10308,0.404019 0.27068,0.971555 0.37245,1.261184 0.10176,0.28963 0.28569,0.81165 0.40875,1.160053 0.66189,1.87392 0.48285,2.997463 -0.96162,6.034528 -0.3342,0.702707 -0.35859,0.700429 0.42899,0.04002 0.68133,-0.571307 1.20507,-0.922419 2.84331,-1.906112 l 1.45795,-0.87545 -0.061,-0.450999 c -0.53695,-3.972043 -0.41387,-5.809396 0.53045,-7.918281 0.79665,-1.779118 1.84729,-2.609374 4.49172,-3.549532 1.99367,-0.708795 2.26681,-0.57632 1.93792,0.939916 -0.18395,0.848136 -0.17838,0.790969 -0.18904,1.927783 -0.0226,2.412824 -0.86626,4.492206 -2.78133,6.855636 -0.24333,0.300305 -0.43668,0.555736 -0.42967,0.567631 0.007,0.01199 0.39299,-0.111657 0.85771,-0.274564 0.73298,-0.256925 1.85862,-0.603399 2.85556,-0.878935 0.28373,-0.07842 0.31246,-0.09815 0.91227,-0.626512 2.25537,-1.986681 3.19843,-2.306681 5.49352,-1.864065 2.80972,0.541857 6.40321,1.507604 6.62394,1.780172 0.38049,0.469845 0.16809,0.731871 -1.53598,1.894803 -2.15045,1.467565 -3.45403,2.12497 -4.56773,2.303556 -2.14899,0.344589 -3.94497,-0.201769 -5.843,-1.777511 l -0.64533,-0.535744 -0.84631,0.239389 c -1.33482,0.377565 -1.69163,0.497898 -2.68586,0.905776 -1.41834,0.581861 -3.05818,1.332498 -3.02691,1.385561 0.005,0.0082 0.28642,-0.01901 0.62576,-0.06042 2.11416,-0.258093 4.12934,0.04599 5.76458,0.869834 1.49691,0.754158 1.55279,0.777775 2.52485,1.067083 l 0.65886,0.196104 0.10281,0.165085 c 0.26357,0.423204 0.15681,0.615415 -0.83968,1.51174 -2.86622,2.578116 -4.38511,2.941603 -7.61918,1.823358 -1.2038,-0.416238 -2.21853,-0.984952 -4.30757,-2.414197 -1.00377,-0.686748 -1.03231,-0.698723 -1.26192,-0.5295 -0.67286,0.495909 -5.07182,4.915727 -5.13466,5.159003 -0.003,0.01096 0.26364,-0.104241 0.59216,-0.256005 3.83657,-1.772354 4.73235,-1.887771 7.19708,-0.927284 0.33726,0.13143 1.08605,0.379516 1.66399,0.551319 1.42533,0.423699 1.52528,0.496426 1.38296,1.006414 -0.52139,1.868238 -3.27634,3.908948 -5.84177,4.327276 -2.32732,0.379501 -3.89287,-0.03615 -6.9233,-1.838122 l -0.46306,-0.275344 -0.18294,0.156272 c -0.1006,0.08596 -0.37495,0.321058 -0.60961,0.522475 -1.83485,1.574833 -2.78197,3.423535 -5.29709,4.219354 -1.37892,0.43631 -2.60918,1.338415 -5.11674,1.257024 -0.26373,-0.0086 -0.23727,0.10697 -0.6143,0.126722 z m 8.6626,-4.62769 c 0.44262,-0.09724 0.85785,-0.403017 1.25637,-0.925196 0.39711,-0.520339 0.43268,-0.603184 0.69151,-1.610747 l 0.23455,-0.912083 -0.0346,-0.444802 c -0.0793,-1.01825 -0.36268,-1.94977 -1.05671,-3.473574 -0.14197,-0.311744 -0.28368,-0.656522 -0.3149,-0.766178 -0.0716,-0.251343 -0.0425,-0.25433 -0.46564,0.04786 -2.05816,1.469841 -3.07563,4.273895 -2.26315,6.237014 0.56071,1.3548 1.24586,2.003084 1.95284,1.847765 z m 9.74819,-0.759942 c 2.14439,0.370449 4.8528,-0.606565 6.34497,-2.288841 0.47679,-0.537523 0.4804,-0.529105 -0.3328,-0.775511 -0.29364,-0.08898 -0.80084,-0.269512 -1.12711,-0.401185 -1.70138,-0.686646 -2.42486,-0.730859 -3.79113,-0.231688 -1.27867,0.46717 -4.52443,1.992521 -4.56375,2.144739 -0.0341,0.132189 1.67682,1.015228 2.53864,1.310206 0.20125,0.06889 0.39048,0.133835 0.42051,0.14437 0.03,0.01045 0.25984,0.05459 0.51067,0.0979 z m -1.35074,-7.544092 c 1.5119,-2.609568 2.58308,-5.213722 2.53538,-6.163738 -0.0207,-0.412106 -0.14979,-0.955522 -0.36006,-1.515585 -0.29924,-0.797043 -0.52251,-1.453243 -0.65782,-1.933321 -0.1521,-0.539635 -0.11352,-0.514555 -0.44061,-0.286474 -1.87433,1.307005 -3.11154,4.61078 -2.57924,6.887448 0.27319,1.168473 1.33594,3.298898 1.50235,3.01167 z m 11.74564,1.135502 c 1.34703,0.192192 2.1727,-0.135434 4.01267,-1.592241 0.37799,-0.299278 0.40227,-0.341136 0.24329,-0.419353 -3.17945,-1.56428 -3.81036,-1.771655 -5.40676,-1.77718 -1.35218,-0.0047 -5.08301,0.698723 -4.88277,0.92059 0.1902,0.210754 2.66183,1.726336 3.36118,2.061044 0.70366,0.336772 1.89269,0.695891 2.67239,0.80714 z m -3.09266,-7.118559 c 0.33987,-0.347327 1.58499,-1.79557 1.92021,-2.233451 0.88185,-1.151924 1.50255,-2.40338 1.84151,-3.712787 l 0.19262,-0.744262 0.0109,-0.989718 c 0.006,-0.544347 0.0223,-1.148423 0.0364,-1.342393 0.0365,-0.50495 0.0492,-0.493838 -0.37394,-0.329411 -2.56264,0.995836 -3.31667,1.782537 -3.91034,4.079762 -0.38227,1.479056 -0.42237,2.290702 -0.21361,4.320193 0.13351,1.298004 0.14194,1.314165 0.49626,0.952055 z m 10.50179,0.776608 c 1.16365,0.206338 2.26921,0.05274 3.37087,-0.468337 0.80452,-0.38052 2.81849,-1.668139 2.8599,-1.828451 0.0337,-0.130537 -2.01752,-0.652591 -4.39573,-1.11875 -2.31452,-0.453668 -2.92457,-0.281845 -4.68519,1.319635 -0.40878,0.371821 -0.40979,0.337495 0.0206,0.692425 0.8065,0.665141 1.25526,0.936795 1.92691,1.16646 0.21626,0.07394 0.40107,0.138584 0.41068,0.143658 0.01,0.0052 0.23101,0.04707 0.492,0.09335 z"
     id="path478"
     sodipodi:nodetypes="cssscssssscssssssssssscsssssscsssssssscssccsscssssscsssssscscsscccscccssssccssssscscssssssssssssssssssscscssssscssssssccc" /></svg>
